<svg width="16" height="16" viewBox="0 0 16 16" fill="none" xmlns="http://www.w3.org/2000/svg">
<path fill-rule="evenodd" clip-rule="evenodd" d="M7.99967 1.33325C4.31778 1.33325 1.33301 4.31802 1.33301 7.99992C1.33301 11.6818 4.31778 14.6666 7.99967 14.6666C11.6816 14.6666 14.6663 11.6818 14.6663 7.99992C14.6663 6.23181 13.964 4.53612 12.7137 3.28587C11.4635 2.03563 9.76778 1.33325 7.99967 1.33325ZM8.66634 10.6666C8.66634 11.0348 8.36786 11.3333 7.99967 11.3333C7.63148 11.3333 7.33301 11.0348 7.33301 10.6666V7.33325C7.33301 6.96506 7.63148 6.66659 7.99967 6.66659C8.36786 6.66659 8.66634 6.96506 8.66634 7.33325V10.6666ZM7.33301 5.33325C7.33301 5.70144 7.63148 5.99992 7.99967 5.99992C8.36786 5.99992 8.66634 5.70144 8.66634 5.33325C8.66634 4.96506 8.36786 4.66659 7.99967 4.66659C7.63148 4.66659 7.33301 4.96506 7.33301 5.33325Z" fill="#637381"/>
</svg>
