<svg width="127" height="26" viewBox="0 0 127 26" fill="none" xmlns="http://www.w3.org/2000/svg">
<path fill-rule="evenodd" clip-rule="evenodd" d="M81.3791 6.29024C83.5695 6.29024 84.3975 7.5298 84.6267 9.16892C84.6284 9.1817 86.7898 24.1621 86.7898 24.1621C86.7898 24.1621 90.6226 15.4485 91.8213 12.1251L91.8571 12.0244C92.7499 9.51029 94.4275 4.78638 97.2123 1.74688C98.5933 0.239816 100.943 1.11816 100.739 3.05886L100.681 3.61091C100.594 4.4441 99.97 5.18954 99.1436 5.41019C95.4369 6.40184 93.5175 9.84109 92.5437 12.31C91.2343 15.6334 87.145 25.3812 87.145 25.3812H81.6466L79.4938 10.4119C79.2876 8.98064 78.86 7.59029 78.2261 6.29109H81.38L81.3791 6.29024ZM126.359 6.89452C126.359 6.47623 126.052 6.12523 125.639 6.05878C125.229 5.99233 124.818 5.95825 124.408 5.95825C122.315 5.95825 120.845 6.71562 119.995 8.2295C119.146 9.74339 118.648 11.9286 118.5 14.7834V6.25387H113.146V25.3806H118.537V15.1898C118.537 13.8361 118.863 12.8078 119.516 12.1066C120.168 11.4047 121.023 11.0545 122.082 11.0545C122.968 11.0545 123.743 11.178 124.408 11.4234C124.776 11.5597 125.14 11.742 125.501 11.9686C125.861 12.1953 126.359 11.9388 126.359 11.4975V6.89452ZM56.1739 13.9961L60.6099 12.9406L60.609 12.9389C60.6789 12.9227 60.7232 12.852 60.707 12.7821C60.2376 10.7196 59.3746 9.02594 58.118 7.70118C56.8358 6.35002 54.8806 5.67358 52.2524 5.67358C50.8433 5.67358 49.5714 5.93002 48.4366 6.44288C47.301 6.95574 46.3392 7.66625 45.5511 8.57526C44.7631 9.48428 44.1582 10.562 43.7382 11.8083C43.3165 13.0556 43.1069 14.3778 43.1069 15.8457C43.1069 17.3135 43.3012 18.6715 43.6905 19.9179C44.0798 21.1651 44.6523 22.2369 45.4097 23.1339C46.1671 24.031 47.1076 24.7305 48.2322 25.2314C49.3567 25.7323 50.6551 25.9828 52.1272 25.9828C54.5663 25.9828 56.5112 25.2723 57.9621 23.8504C59.3839 22.4566 60.3117 20.6931 60.7436 18.5591C60.7573 18.4892 60.713 18.4202 60.6431 18.4049L56.1722 17.4141C56.0989 17.3979 56.0282 17.4481 56.0163 17.5223C55.8203 18.7635 55.4438 19.7603 54.8857 20.5134C54.3073 21.2938 53.3881 21.6839 52.1263 21.6839C50.5503 21.6839 49.43 21.1481 48.768 20.0764C48.1052 19.0046 47.7747 17.5708 47.7747 15.8465C47.7747 14.1222 48.1265 12.7003 48.8311 11.5817C49.5348 10.4631 50.6338 9.90428 52.1263 9.90428C53.3668 9.90428 54.2868 10.2885 54.8857 11.0578C55.4617 11.7973 55.8382 12.7412 56.0163 13.8888C56.0282 13.9637 56.0998 14.014 56.1739 13.9961ZM37.681 17.3849L37.6809 17.385L37.6801 17.3849H37.681ZM37.6809 17.385C37.4006 18.6901 36.944 19.7328 36.3111 20.5132C35.6781 21.2944 34.7316 21.6837 33.4699 21.6837C31.8929 21.6837 30.811 21.1478 30.224 20.0761C29.6992 19.1185 29.4598 17.8901 29.5016 16.3932L42.1945 13.0426C42.4765 12.9684 42.6605 12.683 42.6085 12.4053C42.255 10.5132 41.5317 8.94562 40.4395 7.70265C39.2511 6.35148 37.3436 5.67505 34.7154 5.67505C33.3063 5.67505 32.0165 5.93148 30.8459 6.44434C29.6745 6.95721 28.6632 7.66772 27.8113 8.57673C26.9594 9.48574 26.2795 10.5634 25.7718 11.8098C25.264 13.057 24.9599 14.4022 24.8585 15.8471C24.7554 17.315 24.8551 18.673 25.1575 19.9194C25.4591 21.1666 25.9575 22.2383 26.651 23.1354C27.3453 24.0325 28.2373 24.7319 29.3269 25.2329C30.4165 25.7338 31.6978 25.9843 33.1691 25.9843C35.6082 25.9843 37.6026 25.2738 39.1522 23.8519C40.7019 22.4309 41.7634 20.6248 42.3376 18.4336L37.6809 17.385ZM30.8808 11.5823C31.6629 10.4638 32.8002 9.90489 34.2937 9.90489C35.5341 9.90489 36.4269 10.2891 36.9721 11.0584C36.9743 11.0618 36.9766 11.065 36.979 11.0682C36.9813 11.0714 36.9836 11.0746 36.9858 11.078C37.7244 12.1318 37.0207 13.6781 35.7028 13.9686L29.562 15.5234C29.7316 14.0359 30.1797 12.5842 30.88 11.5823H30.8808ZM106.312 20.5132C106.889 19.7328 107.274 18.69 107.463 17.3849L112.194 18.4336C111.774 20.6248 110.838 22.4309 109.387 23.8519C107.936 25.2738 105.992 25.9843 103.553 25.9843C102.081 25.9843 100.783 25.7338 99.6582 25.2329C98.5336 24.7319 97.5931 24.0325 96.8357 23.1354C96.0792 22.2383 95.5059 21.1666 95.1174 19.9194C94.7281 18.673 94.5338 17.292 94.5338 15.8471C94.5338 14.4022 94.7434 13.057 95.1642 11.8098C95.5843 10.5634 96.1891 9.48574 96.9772 8.57673C97.7652 7.66772 98.727 6.95721 99.8627 6.44434C100.997 5.93148 102.269 5.67505 103.678 5.67505C106.307 5.67505 108.261 6.35148 109.544 7.70265C110.723 8.94562 111.555 10.5132 112.042 12.4053C112.113 12.683 111.949 12.9684 111.672 13.0426L99.2135 16.3932C99.2774 17.8901 99.6028 19.1185 100.194 20.0761C100.856 21.1478 101.975 21.6837 103.552 21.6837C104.814 21.6837 105.733 21.2944 106.312 20.5132ZM103.552 9.90489C102.059 9.90489 100.961 10.4638 100.256 11.5823C99.625 12.5842 99.2791 14.0359 99.2135 15.5234L105.245 13.9686C106.544 13.6781 107.138 12.1318 106.326 11.078L106.319 11.0682L106.311 11.0584C105.712 10.2891 104.792 9.90489 103.552 9.90489ZM2.52339 25.3262L0.37737 6.35111C0.37311 6.31448 0.402076 6.28296 0.438709 6.28296H5.15245C5.18482 6.28296 5.21123 6.30767 5.21379 6.33919L5.91663 15.1431L6.10235 18.7919H6.17647C6.72171 17.3768 7.21839 16.1483 7.66565 15.1064L11.484 6.32044C11.4934 6.29829 11.5155 6.28381 11.5402 6.28381H15.6891C15.7207 6.28381 15.7462 6.30681 15.7505 6.33833L16.7864 15.1073L17.0471 18.7927H17.1212C17.6665 17.4032 18.1512 16.1867 18.5729 15.1439L22.1315 6.32215C22.1408 6.29914 22.1638 6.28381 22.1885 6.28381H26.9662C27.0105 6.28381 27.0403 6.32982 27.0224 6.37071L18.5525 25.3458C18.5423 25.3679 18.521 25.3824 18.4963 25.3824H14.1241C14.0926 25.3824 14.0662 25.3586 14.0628 25.3271L13.0635 16.0001L12.7287 12.2772H12.6546C12.1085 13.7416 11.6118 14.9829 11.1654 16.0001L7.0497 25.3449C7.03948 25.3671 7.01818 25.3816 6.99348 25.3816H2.58387C2.55235 25.3816 2.52594 25.3577 2.52254 25.3271L2.52339 25.3262ZM61.3561 15.8292C61.3561 10.221 65.2707 5.67505 70.1003 5.67505C74.9299 5.67505 78.8445 10.221 78.8445 15.8292C78.8445 21.4375 74.9299 25.9834 70.1003 25.9834C65.2707 25.9834 61.3561 21.4375 61.3561 15.8292ZM65.4786 15.8292C65.4479 19.0947 67.3358 22.1795 70.1003 22.2179C72.8648 22.1804 74.7527 19.0955 74.722 15.8292C74.7527 12.5629 72.864 9.47893 70.1003 9.44059C67.3358 9.47808 65.4479 12.5621 65.4786 15.8292Z" fill="url(#paint0_linear_3_58871)"/>
<defs>
<linearGradient id="paint0_linear_3_58871" x1="-13.0554" y1="-0.121094" x2="180.124" y2="36.9376" gradientUnits="userSpaceOnUse">
<stop stop-color="#15A4FF"/>
<stop offset="1" stop-color="#8FEC43"/>
</linearGradient>
</defs>
</svg>
