<svg width="70" height="70" viewBox="0 0 70 70" fill="none" xmlns="http://www.w3.org/2000/svg">
<mask id="mask0_4759_64924" style="mask-type:alpha" maskUnits="userSpaceOnUse" x="0" y="0" width="70" height="70">
<circle cx="35.2836" cy="34.8783" r="34.3168" fill="white"/>
</mask>
<g mask="url(#mask0_4759_64924)">
<path d="M27.4417 21.086L30.0671 17.498C31.0881 17.3521 33.27 17.1479 33.8301 17.498C34.5302 17.9355 40.2186 20.1234 42.2314 22.1361C44.2442 24.1489 44.4192 28.6996 44.3317 29.4872C44.2442 30.2748 44.0691 35.6131 43.8066 36.4883C43.5966 37.1884 41.3271 40.2221 40.2186 41.6515L41.0937 44.5394L42.2314 48.3025C41.3271 50.4903 39.4834 54.971 39.3434 55.3911C39.1684 55.9161 30.9422 65.1925 30.7672 65.6301C30.6271 65.9801 24.6996 59.2416 21.7533 55.8286V45.5896C21.7533 45.2396 22.0451 40.018 22.1909 37.4509L21.7533 33.3378L20.2656 30.4499L22.1909 28.1745C23.3286 26.891 25.6915 24.2015 26.0415 23.7114C26.3916 23.2213 27.1208 21.7569 27.4417 21.086Z" fill="white"/>
<path d="M61.5117 67.8199C61.5641 68.0184 71.2361 80.5006 70.0472 85.1512C68.8583 89.8018 69.3751 89.4929 67.4485 91.7302C65.522 93.9675 58.5929 101.164 58.5929 101.164L65.9264 112.729C65.9264 112.729 68.3603 115.846 63.6048 119.392C58.8494 122.938 45.6801 130.757 36.0437 131.437C26.4073 132.116 15.6364 131.811 9.16594 130.021C2.6955 128.231 -5.0312 129.027 -3.86106 124.487C-2.69091 119.947 0.958068 96.9088 0.958068 96.9088C0.958068 96.9088 -4.16436 99.324 -6.87909 98.6856C-9.59383 98.0471 -12.9189 99.1555 -18.6423 88.1767C-24.3657 77.1979 -28.6607 67.4867 -28.9396 64.0399C-29.2186 60.5931 -28.8797 55.6823 -27.8163 55.6954C-26.7528 55.7085 -22.1846 56.7457 -20.7879 56.1971C-19.3912 55.6486 -19.2134 55.5812 -18.9157 53.1136C-18.618 50.646 -17.7717 49.2174 -15.892 50.9249C-14.0123 52.6324 -8.77754 65.5059 -8.77754 65.5059L-4.59684 73.4273C-4.59684 73.4273 -3.66073 77.1249 -0.489164 70.9522C2.6824 64.7794 8.17927 53.8475 11.4576 52.4339C14.7358 51.0204 15.6982 52.1756 16.0089 50.1779C16.3197 48.1802 21.7043 44.52 21.5732 48.096C21.4422 51.6719 23.0298 59.1421 23.8199 59.2769C24.61 59.4117 27.7291 58.2453 28.6091 57.738C29.489 57.2306 30.7734 56.4723 30.3746 54.8529C29.9758 53.2334 29.5489 50.0281 34.0666 49.2605C38.5843 48.4929 42.7875 46.9408 42.8961 45.0779C43.0047 43.2151 46.5731 45.3101 47.2771 48.1035C47.9811 50.8968 46.2474 53.4543 50.5348 56.6652C54.8222 59.8761 61.1597 66.5112 61.5117 67.8199Z" fill="url(#paint0_linear_4759_64924)"/>
<path d="M58.3421 25.4476C58.3421 25.4476 57.7654 27.7374 59.5909 29.2501C61.4163 30.7629 64.0468 33.779 62.4123 36.402C60.7779 39.025 59.5235 39.9743 60.0308 41.869C60.5382 43.7637 62.3599 49.2119 59.0086 50.294C55.6573 51.3762 51.5478 50.3371 51.4298 47.5943C51.3119 44.8514 50.4038 44.2448 50.4806 43.2188C50.5573 42.1929 51.1415 40.8467 49.8908 39.8076C48.6402 38.7685 47.9081 37.7838 47.734 37.4449C47.5599 37.106 46.8578 36.344 45.5678 37.7763C44.2779 39.2085 40.1552 43.9546 39.4063 40.9909C38.6574 38.0271 38.8746 38.0103 38.8896 36.9675C38.9046 35.9246 39.4138 36.1961 40.4492 35.3386C41.4845 34.4811 43.3343 33.2923 42.8999 31.2759C42.4656 29.2595 41.565 28.9693 40.7487 28.8869C39.9324 28.8045 39.2341 30.6356 38.9888 29.413C38.7436 28.1904 38.5095 26.2134 37.7232 25.7753C36.9369 25.3372 33.5051 23.3619 32.9527 22.3435C32.4004 21.325 28.0849 17.3671 28.4706 19.0839C28.8563 20.8007 26.2015 23.2028 25.9113 24.021C25.6211 24.8391 23.4961 28.9974 22.4214 26.1385C21.3468 23.2796 20.5492 22.8153 21.4853 21.3062C22.4214 19.7972 25.6941 14.9406 27.2892 14.5887C28.8844 14.2367 32.9584 13.3661 34.3251 14.8789C35.6918 16.3916 35.6357 17.266 35.8678 16.6257C36.1 15.9854 36.9144 15.5772 37.5828 15.6652C38.2512 15.7532 42.7052 16.5564 43.4616 18.2058C44.218 19.8553 45.3806 18.9229 45.3806 18.9229C45.3806 18.9229 44.7459 19.4078 45.3806 18.2058C46.0153 17.0038 45.5529 13.3081 48.9285 13.1714C52.3041 13.0347 54.6145 13.5458 55.4083 15.2776C56.2021 17.0095 57.9938 19.8047 58.0612 21.7237C58.1286 23.6428 58.3421 25.4476 58.3421 25.4476Z" fill="url(#paint1_linear_4759_64924)"/>
<path d="M27.4892 22.4353C26.0915 24.9614 24.2475 27.2132 22.0466 29.0817C21.5542 29.4954 20.5751 29.9579 20.8503 30.6824C21.0544 31.2179 21.6535 31.6654 21.9381 32.1802C22.6139 33.4159 22.7862 34.8313 22.7337 36.2224C22.6738 37.8081 22.3893 39.3827 22.2563 40.9629C22.119 42.5767 22.0504 44.1937 22.0504 45.8138C22.0516 49.2464 22.3561 52.6722 22.9603 56.0512C23.0764 56.7102 22.0672 56.9873 21.9493 56.3283C21.3495 52.976 21.0363 49.5787 21.0132 46.1733C21.0032 44.3734 21.0762 42.5767 21.2322 40.7831C21.3745 39.1505 21.6872 37.5161 21.704 35.876C21.7346 35.0427 21.618 34.2106 21.3595 33.4178C21.0731 32.6127 20.5657 32.1072 20.0696 31.4538C19.448 30.6338 19.7064 29.6658 20.444 29.0367C22.8985 26.9155 25.0048 24.7624 26.5999 21.8979C26.9276 21.31 27.8337 21.8361 27.5042 22.4278L27.4892 22.4353Z" fill="#353C47"/>
<path d="M32.0217 27.5859C32.3031 27.5774 32.577 27.6778 32.7862 27.8661C32.9954 28.0545 33.124 28.3162 33.1451 28.597C33.1594 28.8608 33.1087 29.1241 32.9974 29.3638C32.8861 29.6034 32.7175 29.812 32.5066 29.9712C32.0685 30.2913 31.4002 30.222 31.2054 29.6548C31.0107 29.0875 31.3777 28.6793 31.8046 28.3779C31.9248 28.3092 32.0672 28.2903 32.2013 28.3253C32.3353 28.3603 32.4503 28.4464 32.5216 28.5651C32.5884 28.6858 32.6063 28.8276 32.5714 28.9611C32.5366 29.0946 32.4517 29.2096 32.3344 29.2822C32.3344 29.2822 32.1659 29.4058 32.1828 29.4095C32.2296 29.4095 32.1378 29.1942 32.1378 29.1942L31.8738 29.123C31.9506 29.123 32.0611 28.9059 32.0835 28.831C32.1082 28.775 32.1129 28.7121 32.0966 28.6531C32.0742 28.5988 32.1303 28.625 32.0217 28.6344C31.3496 28.6906 31.3534 27.6421 32.0217 27.5859Z" fill="#353C47"/>
<path d="M27.385 26.5133C27.6666 26.5038 27.9409 26.6039 28.1504 26.7924C28.3598 26.9809 28.4881 27.2432 28.5083 27.5243C28.5228 27.7879 28.4722 28.051 28.3608 28.2904C28.2495 28.5297 28.0809 28.7379 27.8699 28.8966C27.4318 29.2186 26.7634 29.1494 26.5593 28.5802C26.3552 28.0111 26.7315 27.6048 27.1584 27.3034C27.2786 27.2341 27.4212 27.215 27.5553 27.25C27.6895 27.285 27.8045 27.3715 27.8755 27.4906C27.9427 27.6109 27.9607 27.7525 27.9258 27.8858C27.8909 28.0192 27.8058 28.1338 27.6883 28.2058C27.6883 28.2058 27.5198 28.3293 27.5366 28.3331C27.5834 28.3443 27.4917 28.1196 27.4917 28.1196L27.2277 28.0485C27.3045 28.0485 27.4149 27.8313 27.4374 27.7564C27.464 27.6976 27.4687 27.6312 27.4505 27.5692C27.428 27.5168 27.4842 27.5411 27.3756 27.5505C26.7035 27.6085 26.7072 26.5601 27.3756 26.5039L27.385 26.5133Z" fill="#353C47"/>
<path d="M25.4936 32.1146C26.6941 32.5501 27.961 32.7743 29.2381 32.7773C30.2416 32.8036 31.3499 32.6388 32.3235 32.9402C34.1695 33.5019 33.8681 35.6868 32.8683 36.9019C31.7918 38.2124 29.4178 39.3976 27.7141 38.7179C25.9036 37.9953 25.9392 35.1794 26.2986 33.6292C26.4503 32.9739 27.4613 33.2548 27.3096 33.9082C27.0026 35.2318 26.9539 37.9391 28.8861 37.8286C30.2828 37.75 32.0445 36.8363 32.5276 35.4453C33.239 33.3989 30.4119 33.8576 29.2381 33.8239C27.862 33.7865 26.5083 33.6217 25.2184 33.1256C24.5949 32.8859 24.8664 31.8731 25.4973 32.1146H25.4936Z" fill="#353C47"/>
<path d="M32.8585 35.9604C31.1885 36.8572 28.6591 36.4435 26.9497 35.8369C26.3188 35.6141 26.5903 34.6012 27.2287 34.8277C28.6179 35.3201 30.9526 35.7957 32.3287 35.0561C32.9222 34.736 33.452 35.6403 32.8585 35.9604Z" fill="#353C47"/>
<path d="M32.0556 36.6008C31.2326 37.1735 30.3461 37.6491 29.4139 38.018C28.8522 38.2427 28.504 37.3478 29.0095 37.0613L30.8368 36.0279L31.2412 36.9846C30.3051 37.125 29.3989 37.2448 28.459 37.1362C27.9198 37.0726 27.6933 36.2469 28.3205 36.1065C28.844 35.9751 29.3979 36.0488 29.8688 36.3124C30.1422 36.4547 30.2433 36.9284 29.9755 37.1344C29.178 37.7616 28.4122 37.3796 27.8187 36.67L28.6406 36.0353C28.9383 36.4547 29.266 36.9715 29.2941 37.5032C29.2927 37.6161 29.2558 37.7257 29.1885 37.8165C29.1213 37.9072 29.0272 37.9745 28.9196 38.0087C28.0378 38.3644 27.3694 37.1325 27.0193 36.5446L27.976 36.1421C28.1747 36.6306 28.4399 37.0892 28.7642 37.5051C29.1274 37.9862 28.3486 38.5535 27.9404 38.1397C27.6169 37.8115 27.3266 37.4522 27.0736 37.0669C26.6991 36.5053 27.6072 35.9773 27.9779 36.539C28.1835 36.8486 28.4194 37.137 28.6818 37.4002L27.8599 38.0349C27.4883 37.5403 27.1871 36.9966 26.965 36.4192C26.7422 35.8575 27.6278 35.5224 27.9236 36.0166C28.0003 36.1458 28.4852 37.0595 28.6406 36.9996L28.2568 37.5032C28.24 37.198 27.9161 36.8048 27.7457 36.5671C27.405 36.0859 28.1876 35.4774 28.5695 35.9324C28.6434 36.0524 28.7415 36.1557 28.8575 36.2356C28.9736 36.3156 29.105 36.3704 29.2435 36.3967L29.3502 37.2205C29.242 37.1462 29.1178 37.0986 28.9876 37.0813C28.8575 37.0641 28.7252 37.0778 28.6013 37.1212L28.4628 36.0915C29.2984 36.1674 30.1405 36.1297 30.966 35.9792C31.5127 35.8968 31.9283 36.6195 31.3685 36.9359L29.5412 37.9694L29.1387 37.0108C29.9837 36.668 30.786 36.2282 31.5295 35.7002C32.0912 35.3127 32.6079 36.2207 32.0593 36.6045L32.0556 36.6008Z" fill="#353C47"/>
<path d="M38.5354 30.164C39.0334 29.1624 39.728 28.3536 40.9487 28.4491C42.1375 28.5446 42.9894 29.5368 43.2871 30.6302C43.963 33.1203 42.1301 35.3782 39.6905 35.6759C39.0222 35.7583 39.0278 34.7098 39.6905 34.6293C40.4259 34.5492 41.1061 34.201 41.601 33.6512C42.0959 33.1014 42.3709 32.3885 42.3735 31.6487C42.3735 30.8661 42.0533 29.9637 41.2913 29.623C40.3177 29.1886 39.8104 29.945 39.4397 30.692C39.1401 31.2967 38.2377 30.765 38.5354 30.164Z" fill="#353C47"/>
<path d="M38.386 30.5198C37.9213 29.2366 37.7022 27.8775 37.74 26.5132L38.0003 26.9645C34.2536 24.9731 31.084 22.0486 28.7983 18.4739C28.4332 17.9122 29.3393 17.3786 29.7026 17.9459C31.8945 21.3662 34.9327 24.1625 38.5226 26.0639C38.6021 26.1098 38.668 26.1759 38.7137 26.2554C38.7594 26.335 38.7833 26.4252 38.7829 26.517C38.7474 27.7861 38.9532 29.0504 39.3895 30.2427C39.6179 30.8774 38.6069 31.1508 38.3804 30.5198H38.386Z" fill="#353C47"/>
<path d="M32.2708 15.0158C29.088 13.2447 25.8828 15.7835 23.9375 18.1668C22.172 20.333 20.2249 24.3545 23.2616 26.4177C23.8233 26.7922 23.2935 27.7021 22.7337 27.322C19.3187 25.0023 20.7379 20.5913 22.8179 17.9047C25.1114 14.941 28.9607 11.9678 32.7988 14.1116C33.3867 14.4392 32.8606 15.3454 32.2708 15.0158Z" fill="#353C47"/>
<path d="M37.1916 13.7596C37.0382 14.283 37.052 14.8413 37.2309 15.3566L36.5869 14.9915C39.9064 14.5028 42.9824 16.5623 45.1074 18.9438C47.1921 21.2677 48.538 24.1595 48.9736 27.2509C49.7861 33.2514 46.4835 39.6918 40.8593 42.1744C40.3108 42.4178 39.8539 42.4796 39.4196 42.004C38.8804 41.4143 38.5602 40.452 38.3693 39.6918C37.9446 37.9787 38.1163 36.1719 38.856 34.5694C39.1331 33.9553 40.0355 34.4889 39.7603 35.0993C39.1726 36.4083 39.026 37.8729 39.3428 39.2725C39.4608 39.7873 39.6761 40.8545 40.1123 41.1728C40.4456 41.4162 41.2974 40.7983 41.6719 40.5624C43.7967 39.2483 45.5134 37.3682 46.6296 35.133C49.0298 30.3962 48.2472 24.6971 45.055 20.5295C43.2071 18.1125 40.1161 15.5363 36.8659 16.0137C36.7322 16.0466 36.591 16.0271 36.4713 15.9592C36.3515 15.8913 36.2623 15.7802 36.2218 15.6486C35.9893 14.9512 35.9749 14.1995 36.1806 13.4937C36.3678 12.844 37.3695 13.1192 37.1916 13.7727V13.7596Z" fill="#353C47"/>
<path d="M44.5419 18.9605C45.2309 17.5919 45.1204 15.9649 45.991 14.6544C47.1368 12.9357 49.7355 11.9471 51.7425 12.3403C54.4741 12.8795 56.6103 15.4819 57.7449 17.8765C58.3391 19.1343 58.7272 20.4795 58.8944 21.8606C58.9796 22.553 59.004 23.2515 58.9675 23.9481C58.9225 24.8 58.7465 25.6837 58.9974 26.5206C59.4299 27.9753 60.8565 29.0144 61.6953 30.2369C62.4816 31.3828 63.0845 32.7139 63.223 34.1068C63.3429 35.3949 63.012 36.6846 62.2869 37.7558C61.5156 38.9522 60.454 40.0549 60.5345 41.5789C60.615 43.1029 61.5025 44.4865 61.7065 45.9843C61.8674 47.1642 61.5588 48.3602 60.8472 49.315C59.37 51.3258 56.7451 51.9155 54.4704 51C51.5366 49.8299 50.0238 46.8025 49.9545 43.762C49.9377 42.955 50.1193 42.1443 50.065 41.3412C49.992 40.2628 49.1289 39.9894 48.453 39.3229C47.4553 38.3094 46.7843 37.0201 46.5265 35.6215C46.4198 34.9625 47.4289 34.6854 47.5356 35.3425C47.7453 36.5237 48.2929 37.6189 49.112 38.4954C49.8853 39.3079 50.8307 39.6318 51.061 40.8413C51.2913 42.0507 50.9187 43.3107 51.0498 44.5352C51.2052 45.9993 51.7556 47.4708 52.7535 48.568C54.5115 50.5039 57.6307 51.1404 59.604 49.1559C61.8095 46.9391 59.8661 44.4921 59.5254 41.9983C59.3918 40.9799 59.6076 39.9463 60.1376 39.0664C60.7311 38.0273 61.6354 37.1343 62.0098 35.9753C62.946 33.079 60.6993 30.7219 59.0611 28.6643C58.3253 27.7431 57.8329 26.7621 57.8217 25.5657C57.8085 24.2065 58.022 22.9109 57.8048 21.5517C57.3892 18.9455 56.0861 16.3824 54.0435 14.6768C52.6543 13.5179 51.1677 13.0386 49.4022 13.5685C48.4081 13.8661 47.4326 14.3548 46.8504 15.2535C46.0285 16.5191 46.1221 18.1498 45.4481 19.4866C45.1448 20.0894 44.2405 19.5596 44.5438 18.9586L44.5419 18.9605Z" fill="#353C47"/>
<path d="M42.1079 47.276C39.0318 47.9256 35.8434 48.7326 32.9695 50.0357C31.659 50.6329 30.5356 51.4941 30.5001 53.0537C30.4738 54.4354 30.9494 55.7123 30.6461 57.0996C30.5019 57.7567 29.4928 57.474 29.6351 56.8206C29.9833 55.2274 29.1689 53.6378 29.5696 52.0371C29.8804 50.8014 30.8689 49.9402 31.9567 49.3673C34.9522 47.789 38.5376 46.9596 41.8289 46.265C42.488 46.1264 42.7651 47.1356 42.1079 47.276Z" fill="#353C47"/>
<path d="M48.9429 54.4094C56.6827 59.5468 62.0653 67.2904 66.9612 75.0358C69.3464 78.8084 72.3345 82.9217 70.584 87.5798C69.8351 89.5812 68.5245 91.3055 67.1447 92.9175C65.4597 94.889 63.6942 96.7912 61.8837 98.6447C57.826 102.798 53.4959 106.676 48.9223 110.253C48.3962 110.663 47.651 109.927 48.1734 109.504C52.0292 106.49 55.7127 103.262 59.2064 99.8354C60.9164 98.1579 62.5764 96.4336 64.1866 94.6624C65.7293 92.9774 67.33 91.2643 68.5433 89.3153C69.7845 87.3233 70.4567 85.086 69.8688 82.7625C69.2809 80.4391 67.8206 78.3646 66.5512 76.3464C64.2165 72.6356 61.8294 68.9436 59.1109 65.4987C56.0442 61.6138 52.5581 58.0528 48.413 55.3044C47.8513 54.9299 48.3774 54.0256 48.9429 54.4001V54.4094Z" fill="#353C47"/>
<path d="M20.4176 47.1543C18.4368 46.6413 16.4167 48.6727 16.9371 50.6497C16.9569 50.7274 16.9589 50.8086 16.9428 50.8871C16.9268 50.9657 16.8932 51.0396 16.8446 51.1033C16.796 51.1671 16.7336 51.219 16.6621 51.2552C16.5906 51.2915 16.5118 51.311 16.4316 51.3125C10.8692 51.672 7.11539 56.742 4.84438 61.3289C2.4292 66.2099 0.661813 71.6262 -3.51888 75.3576C-3.87835 75.6777 -4.58231 75.3763 -4.39321 74.8483C-4.47933 75.0861 -4.35578 75.0917 -4.47373 74.8951C-4.59168 74.6986 -4.66094 74.5057 -4.75642 74.3148C-5.05037 73.7213 -5.35742 73.1334 -5.66446 72.5436C-6.48076 70.9803 -7.31202 69.4226 -8.13955 67.863C-9.94251 64.4706 -11.5751 61.0762 -12.8969 57.4534C-13.4455 55.9556 -13.6252 54.2444 -14.4995 52.8739C-14.9474 52.148 -15.6066 51.5764 -16.3886 51.2357C-17.2461 50.8819 -17.8078 51.2489 -18.6353 51.1702C-19.2999 51.1084 -19.3074 50.06 -18.6353 50.1236C-18.0418 50.1779 -17.5325 49.9027 -16.9128 49.9982C-16.2408 50.1123 -15.6044 50.3809 -15.0537 50.7827C-13.9304 51.5915 -13.2489 52.7672 -12.807 54.0609C-12.309 55.5344 -11.9421 57.0209 -11.3748 58.4738C-10.7494 60.0689 -10.1129 61.6697 -9.37897 63.218C-7.98977 66.1574 -6.33286 68.9845 -4.82571 71.8659C-4.45126 72.5661 -4.09179 73.2663 -3.74355 73.9778C-3.59939 74.2717 -3.24554 74.7772 -3.36911 75.1273L-4.24343 74.6181C0.249923 70.6171 1.79638 64.6709 4.59724 59.5634C7.07046 55.0532 10.9797 50.6179 16.4466 50.2659L15.9411 50.9287C15.2184 48.1746 17.9575 45.43 20.7115 46.1433C21.3631 46.3118 21.086 47.3228 20.4326 47.1543H20.4176Z" fill="#353C47"/>
<path d="M30.6422 57.1185C28.6526 58.4488 26.4641 59.4542 24.1586 60.0972C23.1289 60.3818 22.0992 60.5184 21.1949 61.1438C20.2811 61.7874 19.6328 62.7418 19.3714 63.8285C19.0774 65.0698 19.0868 66.4497 18.9464 67.7097C18.7941 69.0827 18.6225 70.4556 18.4315 71.8286C18.057 74.5377 17.6227 77.2375 17.1584 79.9316C15.3404 90.4929 13.2604 101.005 11.2196 111.524C10.0813 117.395 8.95425 123.268 7.89082 129.153C7.771 129.815 6.76748 129.527 6.87982 128.874C8.8363 118.041 11.0006 107.253 13.0732 96.4447C14.0954 91.092 15.0896 85.7355 16.0238 80.3678C16.5125 77.5595 16.9768 74.7343 17.3718 71.9054C17.5665 70.5099 17.7425 69.1114 17.8998 67.7097C18.0421 66.416 18.0645 65.0773 18.3079 63.7986C18.5097 62.81 18.9711 61.893 19.6447 61.1419C20.3182 60.3907 21.1796 59.8323 22.1404 59.5243C23.4229 59.1105 24.739 58.8765 26.0028 58.3822C27.4499 57.8093 28.8308 57.0817 30.1217 56.2123C30.6834 55.8379 31.2095 56.7459 30.6497 57.1185H30.6422Z" fill="#353C47"/>
<path d="M25.6045 71.3979C24.9407 70.4637 24.1412 69.6339 23.2324 68.9359C22.7007 68.5221 23.4477 67.7863 23.9813 68.187C24.9542 68.9475 25.8086 69.8485 26.5163 70.8605C26.9057 71.4129 25.9977 71.9371 25.612 71.3904L25.6045 71.3979Z" fill="#353C47"/>
<path d="M26.6128 68.9301L24.1938 71.4464C23.7239 71.9331 22.9844 71.1917 23.4449 70.7068L25.8714 68.1887C26.3413 67.7038 27.0808 68.4452 26.6202 68.9376L26.6128 68.9301Z" fill="#353C47"/>
<path d="M17.6632 21.4128L17.6201 21.4558L17.7025 20.8211L17.6145 20.75L17.2101 20.6976L17.2869 20.6789L16.9742 20.9204C16.9162 21.0421 16.6129 20.4617 16.5867 20.4167C16.45 20.1958 16.3058 19.9786 16.1486 19.7708C15.8193 19.3435 15.4507 18.948 15.0477 18.5894C14.5478 18.1345 15.2911 17.3968 15.7966 17.8405C16.6615 18.6018 17.3678 19.5262 17.8748 20.5609C18.0283 20.896 18.0807 21.3323 17.7512 21.5888C17.6756 21.6439 17.5887 21.6817 17.4968 21.6992C17.4048 21.7168 17.3101 21.7137 17.2195 21.6902C17.1289 21.6668 17.0446 21.6235 16.9727 21.5636C16.9008 21.5036 16.8432 21.4284 16.8039 21.3435C16.7494 21.2424 16.7281 21.1268 16.7429 21.0129C16.7577 20.899 16.8078 20.7927 16.8862 20.7088L16.9312 20.6639C17.4048 20.1846 18.1462 20.9241 17.6801 21.4128H17.6632Z" fill="#353C47"/>
<path d="M14.3802 25.5316L11.9463 23.4216C11.437 22.9779 12.1803 22.2403 12.6952 22.6727L15.1291 24.7846C15.6383 25.2265 14.895 25.9641 14.3802 25.5242V25.5316Z" fill="#353C47"/>
<path d="M12.7006 30.2011L10.6055 29.1564C10.0027 28.8549 10.5325 27.9506 11.1335 28.2521L13.2304 29.2968C13.8333 29.5982 13.3034 30.5025 12.7006 30.2011Z" fill="#353C47"/>
</g>
<defs>
<linearGradient id="paint0_linear_4759_64924" x1="71.6743" y1="44.3701" x2="-48.4412" y2="71.5357" gradientUnits="userSpaceOnUse">
<stop stop-color="#2DE4F0"/>
<stop offset="1" stop-color="#47AAE1"/>
</linearGradient>
<linearGradient id="paint1_linear_4759_64924" x1="63.5697" y1="13.1504" x2="12.7919" y2="24.4259" gradientUnits="userSpaceOnUse">
<stop offset="0.15625" stop-color="#F0A22D"/>
<stop offset="1" stop-color="#E14791"/>
</linearGradient>
</defs>
</svg>
