<svg width="76" height="25" viewBox="0 0 76 25" fill="none" xmlns="http://www.w3.org/2000/svg">
<path fill-rule="evenodd" clip-rule="evenodd" d="M41.1226 9.91574L41.87 2.95569L42.9841 3.07082L42.2367 10.0309L41.1226 9.91574ZM42.5801 1.39642C42.3944 1.37723 42.2391 1.29081 42.1142 1.13716C41.9894 0.983514 41.9365 0.81385 41.9557 0.628173C41.9759 0.433211 42.0623 0.277937 42.215 0.162354C42.3686 0.0374859 42.5383 -0.015354 42.724 0.00383354C42.9189 0.0239804 43.0742 0.110398 43.1898 0.263088C43.3156 0.407453 43.3685 0.577117 43.3483 0.772079C43.3291 0.957757 43.2427 1.11303 43.0891 1.2379C42.9447 1.36372 42.775 1.41656 42.5801 1.39642ZM26.4393 10.7267C25.7979 10.9568 25.2417 10.9679 24.7705 10.7601C24.2994 10.5524 23.955 10.1454 23.7376 9.53922L22.3383 5.63863L21.1918 6.04991L20.8562 5.1143L22.0026 4.70301L21.2651 2.64729L22.3194 2.2691L23.0568 4.32482L25.0335 3.6157L25.3691 4.55132L23.3925 5.26043L24.754 9.05561C24.8737 9.38944 25.0546 9.61709 25.2965 9.73854C25.544 9.84806 25.8303 9.84451 26.1553 9.7279C26.2607 9.69008 26.357 9.64066 26.4442 9.57964C26.537 9.50668 26.6448 9.37876 26.7676 9.19589L27.4834 9.90589C27.3086 10.1372 27.1384 10.3123 26.9728 10.4312C26.8104 10.5588 26.6325 10.6574 26.4393 10.7267ZM21.8217 11.3097L22.204 11.9964L23.0992 11.533L21.3547 8.16382C21.0113 7.50077 20.6306 6.99895 20.2126 6.65839C19.7985 6.30524 19.3429 6.11548 18.8457 6.08911C18.3486 6.06274 17.8141 6.19761 17.2422 6.49373C16.8527 6.69543 16.5305 6.93584 16.2756 7.21495C16.0207 7.49406 15.8331 7.80145 15.7126 8.1371C15.5878 8.46447 15.5218 8.81396 15.5145 9.18559L16.5839 9.08908C16.5951 8.70487 16.6928 8.3758 16.8767 8.10187C17.069 7.82364 17.3433 7.59226 17.6997 7.40772C18.0727 7.2146 18.414 7.14299 18.7236 7.19288C19.0289 7.23448 19.3191 7.38901 19.5942 7.65646C19.7826 7.83667 19.9706 8.07036 20.1584 8.35755L18.4458 9.24435C17.6915 9.63488 17.191 10.1095 16.9443 10.6682C16.7016 11.2143 16.7433 11.8023 17.0694 12.4322C17.3784 13.0289 17.8239 13.3921 18.406 13.5216C18.9921 13.6385 19.6539 13.5061 20.3916 13.1241C21.1707 12.7207 21.6387 12.1631 21.7956 11.4512C21.8055 11.4043 21.8142 11.3571 21.8217 11.3097ZM20.7663 9.4144L20.7588 9.4183C20.9476 9.78298 21.0466 10.1468 21.056 10.5099C21.061 10.8646 20.9738 11.1936 20.7944 11.4967C20.615 11.7997 20.343 12.0457 19.9783 12.2345C19.5473 12.4577 19.1644 12.5403 18.8296 12.4824C18.4906 12.4163 18.2374 12.2216 18.07 11.8983C17.8855 11.5419 17.864 11.2062 18.0057 10.8911C18.1556 10.5717 18.5207 10.2619 19.1008 9.96144L20.63 9.16966L20.7663 9.4144ZM11.9404 18.5473L6.07748 10.4685L6.98393 9.81067L9.33333 13.048C9.30198 12.6801 9.34463 12.3337 9.46128 12.0087C9.62919 11.5409 9.94732 11.137 10.4157 10.7971C11.0955 10.3038 11.7891 10.1233 12.4964 10.2558C13.2038 10.3883 13.8661 10.8878 14.4835 11.7544L16.8352 14.995L15.9288 15.6528L13.8237 12.7522C13.4181 12.1932 13.0404 11.8157 12.6906 11.6198C12.3484 11.4184 12.0256 11.3471 11.7222 11.4058C11.4134 11.4569 11.1155 11.5866 10.8284 11.795C10.3299 12.1568 10.0697 12.6166 10.0478 13.1745C10.0281 13.7193 10.2512 14.3127 10.7171 14.9548L12.8468 17.8894L11.9404 18.5473ZM8.77254 22.5109C8.11857 23.1768 7.38664 23.6158 6.57677 23.8277C5.76023 24.0331 4.9384 24.0174 4.11126 23.7807C3.27747 23.5374 2.50764 23.0692 1.80177 22.376C1.09591 21.6828 0.613885 20.9282 0.355705 20.1121C0.0974048 19.2828 0.063604 18.4648 0.254303 17.6578C0.444882 16.8377 0.863887 16.098 1.51132 15.4388C1.92332 15.0193 2.39555 14.6916 2.92801 14.4558C3.45382 14.2134 4.00364 14.0732 4.57749 14.035C5.14468 13.9902 5.68649 14.0579 6.20292 14.2381L5.8564 15.3302C5.44592 15.1887 5.02302 15.1331 4.5877 15.1635C4.15238 15.1938 3.73751 15.2966 3.3431 15.4717C2.94203 15.6404 2.58781 15.8812 2.28044 16.1941C1.80305 16.6802 1.49789 17.2374 1.36497 17.8656C1.2254 18.4872 1.2608 19.1172 1.47117 19.7555C1.68808 20.3871 2.07622 20.9776 2.63559 21.527C3.19495 22.0763 3.79896 22.4536 4.44761 22.659C5.09626 22.8643 5.73344 22.8948 6.35912 22.7506C6.98469 22.5931 7.53945 22.268 8.02339 21.7752C8.33729 21.4556 8.57159 21.0905 8.72627 20.6799C8.8743 20.2627 8.94628 19.8298 8.94222 19.381C8.9447 18.9256 8.86484 18.4874 8.70263 18.0665L9.79812 17.6903C9.99434 18.2231 10.0852 18.7833 10.0707 19.3708C10.0628 19.9517 9.94579 20.517 9.71976 21.0669C9.50028 21.6101 9.18454 22.0914 8.77254 22.5109ZM37.7346 9.67658L35.4116 4.34979L34.0672 10.0034L34.0253 10.0072L32.9934 10.0991L32.9377 10.1041L29.9456 3.34301L31.0752 3.24235L33.3756 8.51729L34.7287 2.91673L34.7845 2.91176L35.7745 2.82352L35.8443 2.81731L38.1271 8.05199L39.4699 2.49418L40.5994 2.39351L38.8502 9.57715L38.7944 9.58212L37.7346 9.67658ZM44.6977 10.1927C45.007 10.6044 45.4976 10.8667 46.1695 10.9798C46.372 11.0138 46.5753 11.0149 46.7795 10.983C46.982 10.9603 47.2161 10.8908 47.4818 10.7746L47.2047 9.80523C47.0082 9.90467 46.8516 9.9635 46.7349 9.98174C46.6291 9.99232 46.5209 9.98832 46.4104 9.96974C46.0699 9.91245 45.8185 9.77551 45.6561 9.55891C45.5046 9.33466 45.4582 9.04766 45.5171 8.6979L46.1859 4.72178L48.2568 5.07016L48.4217 4.08993L46.3508 3.74155L46.7132 1.58781L45.6087 1.40201L45.2464 3.55574L44.0452 3.35368L43.8803 4.33391L45.0815 4.53597L44.394 8.62255C44.2872 9.25762 44.3884 9.78101 44.6977 10.1927ZM48.2797 11.3705L51.2826 1.85083L52.3507 2.18775L51.1474 6.00247C51.4244 5.75833 51.7281 5.58642 52.0587 5.48674C52.5346 5.34324 53.0485 5.35854 53.6004 5.53261C54.4014 5.7853 54.9593 6.23528 55.2738 6.88254C55.5883 7.52981 55.5811 8.3594 55.2521 9.3713L54.0476 13.1898L52.9795 12.8529L54.0576 9.43493C54.2654 8.77625 54.3439 8.24807 54.2932 7.8504C54.2514 7.45553 54.1166 7.15367 53.8889 6.94482C53.664 6.72708 53.3824 6.56486 53.0442 6.45817C52.4567 6.27286 51.9323 6.33744 51.471 6.6519C51.0214 6.96027 50.6773 7.49275 50.4386 8.24934L49.3479 11.7074L48.2797 11.3705ZM62.5169 17.0943L62.0111 18.0054L62.9001 18.5641L66.625 12.6375L65.6767 12.0415L63.7472 15.1115C63.33 15.7753 62.8585 16.201 62.3327 16.3887C61.8148 16.5813 61.299 16.5162 60.7854 16.1933C60.4851 16.0046 60.2472 15.7779 60.0718 15.5134C59.9092 15.2458 59.8576 14.9158 59.917 14.5231C59.9763 14.1305 60.1898 13.6418 60.5573 13.0571L62.4644 10.0226L61.5162 9.42665L59.3855 12.8167C58.8115 13.7126 58.5908 14.5109 58.7236 15.2117C58.8643 15.9174 59.2942 16.4963 60.0133 16.9482C60.5032 17.2562 60.9926 17.3984 61.4814 17.3749C61.8346 17.3617 62.1798 17.2682 62.5169 17.0943ZM65.0082 20.8606C64.6174 20.5277 64.3248 20.1804 64.1303 19.8185C63.9419 19.4496 63.8299 19.0845 63.7944 18.7232C63.766 18.368 63.806 18.0403 63.9144 17.7404L64.9237 18.0668C64.8447 18.4041 64.8625 18.7503 64.977 19.1053C65.0915 19.4603 65.2944 19.7618 65.5857 20.01C65.9196 20.2944 66.2512 20.4665 66.5804 20.5262C66.9227 20.5849 67.1938 20.497 67.3935 20.2626C67.5811 20.0423 67.6471 19.792 67.5916 19.5118C67.5432 19.2376 67.3954 18.9217 67.1483 18.5641L66.7548 17.9898C66.3806 17.4503 66.1674 16.9377 66.1153 16.452C66.0693 15.9591 66.1854 15.5492 66.4639 15.2224C66.8936 14.718 67.3899 14.4664 67.9527 14.4677C68.5288 14.4679 69.1436 14.7465 69.7973 15.3033C70.1099 15.5696 70.3547 15.8579 70.5318 16.1681C70.7089 16.4784 70.8172 16.7974 70.8567 17.1253C70.9022 17.4461 70.8708 17.7564 70.7624 18.0564L69.7349 17.7513C69.8483 17.4311 69.8408 17.1304 69.7124 16.8494C69.59 16.5613 69.3761 16.2871 69.0706 16.0268C68.7438 15.7484 68.4305 15.598 68.1308 15.5757C67.831 15.5533 67.5753 15.6665 67.3634 15.9151C67.2424 16.0572 67.202 16.2558 67.2423 16.5108C67.2957 16.7647 67.4383 17.0578 67.6701 17.3902L68.085 17.9827C68.3605 18.3645 68.5429 18.7405 68.6321 19.1108C68.7274 19.4739 68.7446 19.8135 68.6838 20.1295C68.623 20.4456 68.4898 20.7244 68.284 20.9659C68.0116 21.2857 67.6903 21.4901 67.3201 21.5793C66.9498 21.6685 66.5646 21.653 66.1643 21.5328C65.7701 21.4054 65.3848 21.1814 65.0082 20.8606ZM74.8503 16.6738L69.7546 21.4119L70.5313 22.2573L75.6743 17.5707L74.8503 16.6738ZM67.6918 23.3259C67.6892 23.5438 67.7605 23.7317 67.9057 23.8898C68.0509 24.0479 68.229 24.1314 68.44 24.1404C68.651 24.1493 68.8356 24.0812 68.9937 23.936C69.1517 23.7907 69.2353 23.6126 69.2442 23.4016C69.26 23.1843 69.1953 22.9966 69.0501 22.8385C68.9049 22.6804 68.7202 22.5966 68.496 22.5871C68.285 22.5782 68.1004 22.6463 67.9423 22.7915C67.7843 22.9368 67.7007 23.1149 67.6918 23.3259Z" fill="#353C47"/>
</svg>
